<svg xmlns="http://www.w3.org/2000/svg" xmlns:xlink="http://www.w3.org/1999/xlink" width="4000" zoomAndPan="magnify" viewBox="0 0 3000 2999.999989" height="4000" preserveAspectRatio="xMidYMid meet" version="1.0"><defs><clipPath id="293fa51a62"><path d="M 1897 83.164062 L 2547.394531 83.164062 L 2547.394531 734 L 1897 734 Z M 1897 83.164062 " clip-rule="nonzero"/></clipPath><clipPath id="e77e95a3dc"><path d="M 454.894531 112 L 1603 112 L 1603 1774 L 454.894531 1774 Z M 454.894531 112 " clip-rule="nonzero"/></clipPath></defs><path fill="#2f5249" d="M 1225.167969 852.359375 L 2457.710938 852.359375 L 2457.710938 1322.445312 L 1225.167969 1322.445312 Z M 1225.167969 852.359375 " fill-opacity="1" fill-rule="nonzero"/><path fill="#2f5249" d="M 1987.625 852.359375 L 2457.710938 852.359375 L 2457.710938 2084.902344 L 1987.625 2084.902344 Z M 1987.625 852.359375 " fill-opacity="1" fill-rule="nonzero"/><path fill="#2f5249" d="M 994.355469 1981.730469 L 2110.207031 865.875 L 2442.597656 1198.261719 L 1326.742188 2314.117188 Z M 994.355469 1981.730469 " fill-opacity="1" fill-rule="nonzero"/><g clip-path="url(#293fa51a62)"><path fill="#2f5249" d="M 2547.6875 408.171875 C 2547.6875 418.808594 2547.164062 429.445312 2546.117188 440.023438 C 2545.070312 450.628906 2543.5 461.121094 2541.4375 471.585938 C 2539.34375 482.019531 2536.757812 492.335938 2533.679688 502.507812 C 2530.597656 512.707031 2527.023438 522.707031 2522.925781 532.527344 C 2518.855469 542.378906 2514.324219 551.972656 2509.296875 561.359375 C 2504.296875 570.773438 2498.804688 579.871094 2492.902344 588.734375 C 2487.003906 597.570312 2480.667969 606.113281 2473.898438 614.339844 C 2467.152344 622.5625 2460.003906 630.441406 2452.476562 637.96875 C 2444.949219 645.496094 2437.074219 652.644531 2428.851562 659.386719 C 2420.625 666.15625 2412.082031 672.492188 2403.246094 678.394531 C 2394.382812 684.320312 2385.257812 689.785156 2375.867188 694.785156 C 2366.480469 699.8125 2356.890625 704.347656 2347.039062 708.445312 C 2337.214844 712.511719 2327.1875 716.085938 2317.015625 719.167969 C 2306.84375 722.277344 2296.527344 724.835938 2286.066406 726.925781 C 2275.632812 728.992188 2265.113281 730.558594 2254.53125 731.605469 C 2243.925781 732.652344 2233.316406 733.175781 2222.679688 733.175781 C 2212.042969 733.175781 2201.40625 732.652344 2190.828125 731.605469 C 2180.21875 730.558594 2169.699219 728.992188 2159.265625 726.925781 C 2148.832031 724.835938 2138.515625 722.277344 2128.34375 719.167969 C 2118.144531 716.085938 2108.144531 712.511719 2098.292969 708.445312 C 2088.46875 704.347656 2078.851562 699.8125 2069.464844 694.785156 C 2060.074219 689.785156 2050.949219 684.320312 2042.117188 678.394531 C 2033.25 672.492188 2024.734375 666.15625 2016.480469 659.386719 C 2008.257812 652.644531 2000.382812 645.496094 1992.855469 637.96875 C 1985.328125 630.441406 1978.207031 622.5625 1971.433594 614.339844 C 1964.691406 606.113281 1958.355469 597.570312 1952.457031 588.734375 C 1946.527344 579.871094 1941.066406 570.773438 1936.039062 561.359375 C 1931.039062 551.972656 1926.476562 542.378906 1922.40625 532.527344 C 1918.339844 522.707031 1914.761719 512.707031 1911.652344 502.507812 C 1908.574219 492.335938 1905.988281 482.019531 1903.921875 471.585938 C 1901.832031 461.121094 1900.289062 450.628906 1899.242188 440.023438 C 1898.199219 429.445312 1897.675781 418.808594 1897.675781 408.171875 C 1897.675781 397.53125 1898.199219 386.894531 1899.242188 376.316406 C 1900.289062 365.710938 1901.832031 355.1875 1903.921875 344.753906 C 1905.988281 334.320312 1908.574219 324.003906 1911.652344 313.832031 C 1914.761719 303.632812 1918.339844 293.632812 1922.40625 283.78125 C 1926.476562 273.960938 1931.039062 264.339844 1936.039062 254.953125 C 1941.066406 245.566406 1946.527344 236.46875 1952.457031 227.605469 C 1958.355469 218.769531 1964.691406 210.226562 1971.433594 202 C 1978.207031 193.746094 1985.328125 185.871094 1992.855469 178.34375 C 2000.382812 170.816406 2008.257812 163.695312 2016.480469 156.925781 C 2024.734375 150.183594 2033.25 143.847656 2042.117188 137.945312 C 2050.949219 132.019531 2060.074219 126.554688 2069.464844 121.554688 C 2078.851562 116.527344 2088.46875 111.964844 2098.292969 107.894531 C 2108.144531 103.828125 2118.144531 100.253906 2128.34375 97.171875 C 2138.515625 94.0625 2148.832031 91.476562 2159.265625 89.414062 C 2169.699219 87.320312 2180.21875 85.78125 2190.828125 84.734375 C 2201.40625 83.6875 2212.042969 83.164062 2222.679688 83.164062 C 2233.316406 83.164062 2243.925781 83.6875 2254.53125 84.734375 C 2265.113281 85.78125 2275.632812 87.320312 2286.066406 89.414062 C 2296.527344 91.476562 2306.84375 94.0625 2317.015625 97.171875 C 2327.1875 100.253906 2337.214844 103.828125 2347.039062 107.894531 C 2356.890625 111.964844 2366.480469 116.527344 2375.867188 121.554688 C 2385.257812 126.554688 2394.382812 132.019531 2403.246094 137.945312 C 2412.082031 143.847656 2420.625 150.183594 2428.851562 156.925781 C 2437.074219 163.695312 2444.949219 170.816406 2452.476562 178.34375 C 2460.003906 185.871094 2467.152344 193.746094 2473.898438 202 C 2480.667969 210.226562 2487.003906 218.769531 2492.902344 227.605469 C 2498.804688 236.46875 2504.296875 245.566406 2509.296875 254.953125 C 2514.324219 264.339844 2518.855469 273.960938 2522.925781 283.78125 C 2527.023438 293.632812 2530.597656 303.632812 2533.679688 313.832031 C 2536.757812 324.003906 2539.34375 334.320312 2541.4375 344.753906 C 2543.5 355.1875 2545.070312 365.710938 2546.117188 376.316406 C 2547.164062 386.894531 2547.6875 397.53125 2547.6875 408.171875 Z M 2547.6875 408.171875 " fill-opacity="1" fill-rule="nonzero"/></g><g clip-path="url(#e77e95a3dc)"><path fill="#2f5249" d="M 1602.980469 128.152344 C 1393.964844 90.140625 1178.234375 121.527344 988.6875 217.550781 C 799.171875 313.542969 646.242188 468.910156 553.214844 659.910156 C 460.183594 850.9375 432.199219 1067.132812 473.46875 1275.539062 C 514.734375 1483.949219 613.226562 1632.3125 772.027344 1773.4375 L 1076.71875 1482.496094 C 990.285156 1405.683594 931.347656 1302.714844 908.882812 1189.28125 C 886.414062 1075.882812 901.644531 958.207031 952.273438 854.25 C 1002.898438 750.292969 1086.132812 665.75 1189.277344 613.496094 C 1292.417969 561.242188 1409.832031 544.152344 1523.582031 564.847656 Z M 1602.980469 128.152344 " fill-opacity="1" fill-rule="nonzero"/></g><path fill="#2f5249" d="M 655.535156 2702.746094 L 655.535156 2970.230469 L 563.257812 2970.230469 L 563.257812 2933.339844 C 522.109375 2962.6875 475.992188 2977.335938 424.9375 2977.335938 C 359.1875 2977.335938 303.167969 2954.171875 256.835938 2907.835938 C 210.5 2861.457031 187.335938 2805.386719 187.335938 2739.636719 C 187.335938 2673.90625 210.5 2617.863281 256.835938 2571.53125 C 303.167969 2525.199219 359.1875 2502.03125 424.9375 2502.03125 C 483.585938 2502.03125 535.152344 2520.964844 579.609375 2558.78125 L 508.652344 2628.960938 C 483.585938 2610.539062 455.699219 2601.316406 424.9375 2601.316406 C 386.199219 2601.316406 353.808594 2614.824219 327.796875 2641.808594 C 300.34375 2669.210938 286.621094 2701.820312 286.621094 2739.636719 C 286.621094 2777.476562 300.34375 2810.109375 327.796875 2837.558594 C 354.710938 2864.570312 387.097656 2878.050781 424.9375 2878.050781 C 462.316406 2878.050781 494.949219 2864.570312 522.863281 2837.558594 C 523.761719 2836.660156 524.710938 2835.710938 525.683594 2834.734375 L 529.1875 2831.230469 C 532.5 2827.410156 535.566406 2823.835938 538.4375 2820.523438 C 546.46875 2810.597656 551.917969 2802.101562 554.789062 2795.023438 L 448.398438 2795.023438 L 448.398438 2702.746094 Z M 562.578125 2795.023438 L 563.257812 2795.703125 L 563.257812 2795.023438 Z M 562.578125 2795.023438 " fill-opacity="1" fill-rule="nonzero"/><path fill="#2f5249" d="M 808.703125 2789.375 L 808.703125 2870.945312 L 1020.023438 2870.945312 L 1020.023438 2970.230469 L 698.027344 2970.230469 L 698.027344 2509.136719 L 1020.023438 2509.136719 L 1020.023438 2608.421875 L 808.703125 2608.421875 L 808.703125 2689.992188 L 988.097656 2689.992188 L 988.097656 2789.375 Z M 808.703125 2789.375 " fill-opacity="1" fill-rule="nonzero"/><path fill="#2f5249" d="M 1364.066406 2509.136719 L 1474.738281 2509.136719 L 1474.738281 2970.230469 L 1168.996094 2745.378906 L 1168.996094 2970.230469 L 1058.324219 2970.230469 L 1058.324219 2509.136719 L 1364.066406 2744.601562 Z M 1364.066406 2509.136719 " fill-opacity="1" fill-rule="nonzero"/><path fill="#2f5249" d="M 1623.683594 2789.375 L 1623.683594 2870.945312 L 1835.007812 2870.945312 L 1835.007812 2970.230469 L 1513.007812 2970.230469 L 1513.007812 2509.136719 L 1835.007812 2509.136719 L 1835.007812 2608.421875 L 1623.683594 2608.421875 L 1623.683594 2689.992188 L 1803.078125 2689.992188 L 1803.078125 2789.375 Z M 1623.683594 2789.375 " fill-opacity="1" fill-rule="nonzero"/><path fill="#2f5249" d="M 2065.546875 2970.914062 C 2034.328125 2970.914062 2006.902344 2966.433594 1983.296875 2957.480469 C 1964.339844 2949.886719 1944.945312 2937.378906 1925.089844 2919.90625 C 1902.359375 2899.078125 1887.929688 2873.28125 1881.773438 2842.523438 C 1879.4375 2832.59375 1878.269531 2822.667969 1878.269531 2812.738281 C 1877.804688 2809.429688 1877.804688 2806.117188 1878.269531 2802.808594 L 1878.269531 2797.84375 L 1975.414062 2799.304688 L 1975.414062 2798.527344 C 1975.414062 2816.046875 1979.210938 2830.5 1986.800781 2841.84375 C 2001.011719 2863.132812 2027.246094 2873.769531 2065.546875 2873.769531 C 2126.992188 2873.769531 2157.726562 2859.339844 2157.726562 2830.453125 C 2157.726562 2802.566406 2126.042969 2785.070312 2062.726562 2777.988281 C 2026.320312 2773.703125 1995.101562 2766.160156 1969.085938 2755.308594 C 1944.945312 2745.378906 1925.308594 2732.140625 1910.195312 2715.59375 C 1888.902344 2691.914062 1878.269531 2664.464844 1878.269531 2633.246094 C 1878.269531 2613.851562 1881.796875 2595.648438 1888.878906 2578.636719 C 1894.0625 2565.863281 1901.167969 2554.277344 1910.195312 2543.886719 C 1943.292969 2506.507812 1995.78125 2487.820312 2067.691406 2487.820312 C 2110.714844 2487.820312 2147.117188 2496.363281 2176.902344 2513.421875 C 2199.609375 2526.148438 2218.078125 2543.15625 2232.289062 2564.425781 C 2242.65625 2580.535156 2250.003906 2598.980469 2254.289062 2619.8125 C 2255.652344 2626.894531 2256.574219 2633.976562 2257.113281 2641.03125 C 2257.550781 2643.441406 2257.792969 2645.800781 2257.792969 2648.136719 L 2257.792969 2652.421875 L 2160.648438 2652.421875 L 2160.648438 2653.101562 C 2161.085938 2638.964844 2157.535156 2626.917969 2149.941406 2616.988281 C 2134.804688 2595.71875 2107.40625 2585.0625 2067.691406 2585.0625 C 2043.550781 2585.0625 2023.691406 2588.128906 2008.117188 2594.210938 C 1988.699219 2601.804688 1979.015625 2612.707031 1979.015625 2626.917969 C 1979.015625 2656.191406 2010.453125 2674.394531 2073.335938 2681.523438 C 2144.246094 2689.578125 2195.324219 2711.578125 2226.546875 2747.519531 C 2247.378906 2772.121094 2257.792969 2799.765625 2257.792969 2830.453125 L 2257.792969 2836.878906 C 2257.792969 2839.75 2257.550781 2842.570312 2257.113281 2845.347656 C 2256.574219 2852.9375 2255.652344 2860.042969 2254.289062 2866.664062 C 2249.542969 2885.546875 2240.5625 2902.339844 2227.324219 2916.988281 C 2211.679688 2934.507812 2190.628906 2948.015625 2164.152344 2957.480469 C 2137.675781 2966.433594 2104.800781 2970.914062 2065.546875 2970.914062 Z M 2065.546875 2970.914062 " fill-opacity="1" fill-rule="nonzero"/><path fill="#2f5249" d="M 2289.621094 2509.136719 L 2400.292969 2509.136719 L 2400.292969 2970.230469 L 2289.621094 2970.230469 Z M 2289.621094 2509.136719 " fill-opacity="1" fill-rule="nonzero"/><path fill="#2f5249" d="M 2620.21875 2970.914062 C 2588.996094 2970.914062 2561.570312 2966.433594 2537.964844 2957.480469 C 2519.011719 2949.886719 2499.613281 2937.378906 2479.757812 2919.90625 C 2457.03125 2899.078125 2442.597656 2873.28125 2436.441406 2842.523438 C 2434.105469 2832.59375 2432.9375 2822.667969 2432.9375 2812.738281 C 2432.476562 2809.429688 2432.476562 2806.117188 2432.9375 2802.808594 L 2432.9375 2797.84375 L 2530.082031 2799.304688 L 2530.082031 2798.527344 C 2530.082031 2816.046875 2533.878906 2830.5 2541.472656 2841.84375 C 2555.683594 2863.132812 2581.914062 2873.769531 2620.21875 2873.769531 C 2681.664062 2873.769531 2712.398438 2859.339844 2712.398438 2830.453125 C 2712.398438 2802.566406 2680.714844 2785.070312 2617.394531 2777.988281 C 2580.992188 2773.703125 2549.769531 2766.160156 2523.753906 2755.308594 C 2499.613281 2745.378906 2479.976562 2732.140625 2464.863281 2715.59375 C 2443.570312 2691.914062 2432.9375 2664.464844 2432.9375 2633.246094 C 2432.9375 2613.851562 2436.464844 2595.648438 2443.546875 2578.636719 C 2448.730469 2565.863281 2455.835938 2554.277344 2464.863281 2543.886719 C 2497.960938 2506.507812 2550.449219 2487.820312 2622.359375 2487.820312 C 2665.382812 2487.820312 2701.789062 2496.363281 2731.574219 2513.421875 C 2754.277344 2526.148438 2772.746094 2543.15625 2786.960938 2564.425781 C 2797.324219 2580.535156 2804.675781 2598.980469 2808.957031 2619.8125 C 2810.320312 2626.894531 2811.246094 2633.976562 2811.78125 2641.03125 C 2812.21875 2643.441406 2812.460938 2645.800781 2812.460938 2648.136719 L 2812.460938 2652.421875 L 2715.316406 2652.421875 L 2715.316406 2653.101562 C 2715.757812 2638.964844 2712.203125 2626.917969 2704.609375 2616.988281 C 2689.472656 2595.71875 2662.074219 2585.0625 2622.359375 2585.0625 C 2598.21875 2585.0625 2578.363281 2588.128906 2562.789062 2594.210938 C 2543.367188 2601.804688 2533.683594 2612.707031 2533.683594 2626.917969 C 2533.683594 2656.191406 2565.125 2674.394531 2628.003906 2681.523438 C 2698.917969 2689.578125 2749.996094 2711.578125 2781.214844 2747.519531 C 2802.046875 2772.121094 2812.460938 2799.765625 2812.460938 2830.453125 L 2812.460938 2836.878906 C 2812.460938 2839.75 2812.21875 2842.570312 2811.78125 2845.347656 C 2811.246094 2852.9375 2810.320312 2860.042969 2808.957031 2866.664062 C 2804.210938 2885.546875 2795.234375 2902.339844 2781.996094 2916.988281 C 2766.347656 2934.507812 2745.296875 2948.015625 2718.820312 2957.480469 C 2692.347656 2966.433594 2659.46875 2970.914062 2620.21875 2970.914062 Z M 2620.21875 2970.914062 " fill-opacity="1" fill-rule="nonzero"/></svg>